Coordinates
version=1
nRows=18
nColumns=32
inDegrees=yes

Units are S.I. units (second, meters, Newtons, ...)
If the header above contains a line with 'inDegrees', this indicates whether rotational values are in degrees (yes) or radians (no).

endheader
time	pelvis_tilt	pelvis_list	pelvis_rotation	pelvis_tx	pelvis_ty	pelvis_tz	hip_flexion_r	hip_adduction_r	hip_rotation_r	knee_angle_r	ankle_angle_r	subtalar_angle_r	mtp_angle_r	hip_flexion_l	hip_adduction_l	hip_rotation_l	knee_angle_l	ankle_angle_l	subtalar_angle_l	mtp_angle_l	lumbar_extension	lumbar_bending	lumbar_rotation	arm_flex_r	arm_add_r	arm_rot_r	elbow_flex_r	arm_flex_l	arm_add_l	arm_rot_l	elbow_flex_l
      0.01000000	     -5.53171977	     -1.74541023	     -0.90912402	     -2.36105061	      0.84384258	     -0.22466441	     18.14921196	     -2.22691163	    -12.73463763	    -62.24148711	     23.11369454	    -23.10223215	      0.00000000	     28.00380178	      0.53316127	      5.82209082	    -45.62769755	     20.97763232	    -16.32168036	      0.00000000	     -6.26173017	     -6.92586752	     -8.87845915	      0.00000000	      0.00000000	      0.00000000	      0.00000000	      0.00000000	      0.00000000	      0.00000000	      0.00000000
      0.02000000	     -5.84935123	     -1.47891390	     -1.73417612	     -2.35640586	      0.84476576	     -0.22453166	     20.52884670	     -2.38088593	    -12.21405204	    -64.16157130	     24.20523559	    -23.07742521	      0.00000000	     27.59399488	      0.63419354	      5.51646568	    -45.00148064	     20.93360642	    -17.76496068	      0.00000000	     -6.15382888	     -7.54913775	     -7.72438382	      0.00000000	      0.00000000	      0.00000000	      0.00000000	      0.00000000	      0.00000000	      0.00000000	      0.00000000
      0.03000000	     -6.16571596	     -1.59789994	     -1.68099845	     -2.35159943	      0.84587602	     -0.22558449	     22.60876003	     -2.30878689	    -12.35352590	    -65.59488902	     23.44473670	    -21.90902903	      0.00000000	     27.34924679	      0.73911584	      5.72211530	    -44.61826859	     22.06319977	    -17.39655288	      0.00000000	     -5.97176600	     -7.37537020	     -8.42019644	      0.00000000	      0.00000000	      0.00000000	      0.00000000	      0.00000000	      0.00000000	      0.00000000	      0.00000000
      0.04000000	     -6.07808023	     -1.81343742	     -1.86669855	     -2.34642501	      0.84737455	     -0.22580008	     24.12540517	     -1.80033689	    -12.63337028	    -66.51808756	     24.00362986	    -21.97859784	      0.00000000	     26.53158145	      0.25666171	      5.25156961	    -43.96044678	     21.35078989	    -17.65763983	      0.00000000	     -6.25141082	     -7.21415689	     -8.14310072	      0.00000000	      0.00000000	      0.00000000	      0.00000000	      0.00000000	      0.00000000	      0.00000000	      0.00000000
      0.05000000	     -6.38736632	     -1.51067243	     -1.61841911	     -2.34139066	      0.84811271	     -0.22696044	     26.34843633	     -2.12315876	    -12.74171545	    -67.89793868	     24.26167379	    -22.04060890	      0.00000000	     26.11395543	      0.79008456	      5.85304807	    -43.28940946	     21.26278537	    -17.96424194	      0.00000000	     -6.11342043	     -7.59078022	     -9.19716469	      0.00000000	      0.00000000	      0.00000000	      0.00000000	      0.00000000	      0.00000000	      0.00000000	      0.00000000
      0.06000000	     -6.26216495	     -1.86786566	     -1.88909025	     -2.33679254	      0.85019740	     -0.22712937	     27.94307149	     -1.44570889	    -12.68472587	    -68.48818616	     24.72012357	    -21.77788258	      0.00000000	     25.45981651	      0.30495427	      5.47242772	    -42.89561683	     21.72840077	    -17.75366335	      0.00000000	     -6.59321337	     -7.31214266	     -8.40027531	      0.00000000	      0.00000000	      0.00000000	      0.00000000	      0.00000000	      0.00000000	      0.00000000	      0.00000000
      0.07000000	     -6.33163545	     -1.97308064	     -1.61245658	     -2.33184104	      0.85144726	     -0.22787100	     29.60961427	     -0.92967764	    -12.44814565	    -68.83391834	     23.10887087	    -23.48617993	      0.00000000	     24.76047686	      0.28896591	      5.84829120	    -42.19290394	     22.35019938	    -16.80397114	      0.00000000	     -6.84367753	     -7.36485591	     -9.04917845	      0.00000000	      0.00000000	      0.00000000	      0.00000000	      0.00000000	      0.00000000	      0.00000000	      0.00000000
      0.08000000	     -6.78163190	     -1.82479157	     -1.33943344	     -2.32685598	      0.85211866	     -0.22881290	     32.02129320	     -0.65495652	    -11.93321311	    -69.50032536	     22.46575388	    -24.71913771	      0.00000000	     24.69543247	      0.39653196	      5.55510555	    -41.70567669	     22.17388944	    -16.45716716	      0.00000000	     -6.44751987	     -7.39988682	     -9.16996024	      0.00000000	      0.00000000	      0.00000000	      0.00000000	      0.00000000	      0.00000000	      0.00000000	      0.00000000
      0.09000000	     -6.59567857	     -2.09919404	     -1.39015817	     -2.32213008	      0.85420611	     -0.22853244	     33.59738707	     -0.28487784	    -12.20505675	    -69.45798141	     23.02736808	    -24.94179349	      0.00000000	     23.81262195	      0.01128235	      5.49152607	    -41.03769381	     22.27655888	    -16.36618765	      0.00000000	     -7.05405484	     -7.36176202	     -9.34501786	      0.00000000	      0.00000000	      0.00000000	      0.00000000	      0.00000000	      0.00000000	      0.00000000	      0.00000000
      0.10000000	     -6.35590834	     -2.51784587	     -0.74027686	     -2.31657562	      0.85596481	     -0.22989872	     34.77263476	     -0.05254337	    -12.92786494	    -69.31884554	     24.53198852	    -23.89602400	      0.00000000	     22.98356241	     -0.29544386	      5.76926533	    -40.56158658	     22.56429718	    -15.84483209	      0.00000000	     -7.51866868	     -6.73655313	     -9.60483439	      0.00000000	      0.00000000	      0.00000000	      0.00000000	      0.00000000	      0.00000000	      0.00000000	      0.00000000
      0.11000000	     -6.25835241	     -2.64100099	     -0.49880800	     -2.31114504	      0.85737818	     -0.23029431	     36.32693464	      0.25571647	    -12.74681608	    -69.22502335	     24.34116710	    -23.80266438	      0.00000000	     22.19031686	     -0.41027150	      5.89831865	    -39.93260669	     22.56647922	    -15.68822290	      0.00000000	     -7.87595541	     -6.76021637	     -9.82873173	      0.00000000	      0.00000000	      0.00000000	      0.00000000	      0.00000000	      0.00000000	      0.00000000	      0.00000000
      0.12000000	     -6.14795818	     -2.78898187	      0.20234379	     -2.30539068	      0.85906345	     -0.23157036	     37.46879720	      0.45562585	    -12.70270472	    -68.51480472	     24.39075229	    -23.89218133	      0.00000000	     21.50063657	     -0.43803452	      6.12868439	    -39.36964108	     22.47776319	    -15.43737692	      0.00000000	     -8.11105421	     -6.49845056	    -10.00152119	      0.00000000	      0.00000000	      0.00000000	      0.00000000	      0.00000000	      0.00000000	      0.00000000	      0.00000000
      0.13000000	     -6.01751130	     -3.02638064	      0.72940437	     -2.29963376	      0.86030880	     -0.23207233	     38.82615709	      0.69107203	    -12.65447524	    -68.01288693	     24.25055111	    -23.67390722	      0.00000000	     20.72411873	     -0.63597435	      6.21468083	    -38.73196880	     22.49292081	    -15.28557689	      0.00000000	     -8.49208680	     -6.37467850	    -10.44247554	      0.00000000	      0.00000000	      0.00000000	      0.00000000	      0.00000000	      0.00000000	      0.00000000	      0.00000000
      0.14000000	     -5.91795556	     -3.17268289	      1.26916750	     -2.29387560	      0.86133905	     -0.23302048	     39.94435926	      0.93938758	    -12.32907575	    -66.97806228	     24.06131250	    -23.43234136	      0.00000000	     20.02283021	     -0.70860909	      6.64704401	    -38.21850498	     22.48993604	    -15.14688540	      0.00000000	     -8.70574474	     -6.08674156	    -10.54328100	      0.00000000	      0.00000000	      0.00000000	      0.00000000	      0.00000000	      0.00000000	      0.00000000	      0.00000000
      0.15000000	     -5.72842164	     -3.90214915	      2.32371799	     -2.28745599	      0.86279885	     -0.23394694	     40.47598797	      1.49863485	    -12.70638840	    -65.12765419	     23.66420633	    -23.37106198	      0.00000000	     19.53503923	     -1.38175727	      7.03013006	    -38.01189808	     22.91108388	    -14.88164096	      0.00000000	     -8.98799825	     -5.22082397	    -11.27986725	      0.00000000	      0.00000000	      0.00000000	      0.00000000	      0.00000000	      0.00000000	      0.00000000	      0.00000000
      0.16000000	     -5.49123851	     -4.28624663	      2.98927182	     -2.28095553	      0.86390170	     -0.23458942	     41.13083986	      1.86183961	    -12.56774726	    -63.53752152	     22.95620295	    -22.99477360	      0.00000000	     18.64335257	     -1.65167951	      7.69935286	    -37.58503109	     22.95586019	    -14.64284052	      0.00000000	     -9.29516105	     -4.92130675	    -12.12718137	      0.00000000	      0.00000000	      0.00000000	      0.00000000	      0.00000000	      0.00000000	      0.00000000	      0.00000000
      0.17000000	     -5.41178578	     -4.43352889	      3.73279540	     -2.27436558	      0.86454669	     -0.23593791	     41.73170739	      2.07107503	    -12.04527892	    -61.67096058	     22.75252219	    -22.74369834	      0.00000000	     17.90242024	     -1.59590922	      8.15941393	    -37.13633869	     23.01344583	    -14.50264132	      0.00000000	     -9.28511651	     -4.52301587	    -12.09081262	      0.00000000	      0.00000000	      0.00000000	      0.00000000	      0.00000000	      0.00000000	      0.00000000	      0.00000000
      0.18000000	     -4.92016664	     -4.96548871	      4.56592252	     -2.26757471	      0.86569095	     -0.23640388	     41.81162841	      2.66522260	    -11.65268961	    -59.59457242	     21.42693992	    -22.03116315	      0.00000000	     16.93490115	     -2.14996518	      8.89772970	    -36.86404094	     23.22449884	    -14.60242688	      0.00000000	     -9.77654801	     -3.87997026	    -12.94564039	      0.00000000	      0.00000000	      0.00000000	      0.00000000	      0.00000000	      0.00000000	      0.00000000	      0.00000000
